<svg xmlns="http://www.w3.org/2000/svg"
	 viewBox="0 0 250 250" width="250" height="250" fill="#797979" xml:space="preserve">
<path d="M205.1,85.6c-2.6-0.9-5.3-1.7-8-2.5c0.5-1.9,0.9-3.7,1.2-5.5c6.1-29.5,2.1-53.3-11.5-61.1
	c-13-7.5-34.3,0.3-55.8,19c-2.1,1.8-4.1,3.7-6.2,5.7c-1.4-1.3-2.8-2.6-4.1-3.8c-22.5-20-45.1-28.4-58.7-20.6
	c-13,7.5-16.9,29.9-11.4,57.8c0.5,2.7,1.1,5.5,1.8,8.3c-3.2,0.9-6.3,1.9-9.2,2.9C16.9,95,0,109.4,0,124.4c0,15.5,18.1,31,45.6,40.4
	c2.2,0.7,4.4,1.4,6.7,2.1c-0.8,3-1.4,6-2,8.9c-5.2,27.5-1.1,49.3,11.8,56.8c13.4,7.7,35.9-0.2,57.8-19.4c1.7-1.5,3.5-3.1,5.2-4.8
	c2.3,2.2,4.5,4.2,6.7,6.2c21.2,18.2,42.1,25.6,55.1,18.1c13.4-7.7,17.7-31.2,12.1-59.7c-0.4-2.2-0.9-4.4-1.5-6.7
	c1.6-0.5,3.1-0.9,4.6-1.4c28.6-9.5,47.2-24.8,47.2-40.5C249.5,109.4,232.1,94.8,205.1,85.6L205.1,85.6L205.1,85.6z M198.9,154.7
	c-1.4,0.5-2.8,0.9-4.2,1.3c-3.2-10-7.4-20.6-12.6-31.6c5-10.7,9.1-21.2,12.1-31.1c2.6,0.7,5,1.5,7.4,2.3
	c23.1,7.9,37.2,19.7,37.2,28.8C238.8,134,223.6,146.6,198.9,154.7L198.9,154.7L198.9,154.7z M188.7,175.1c2.5,12.6,2.9,24,1.2,32.9
	c-1.5,8-4.5,13.3-8.2,15.5c-7.9,4.6-24.7-1.4-42.8-17c-2.1-1.8-4.2-3.7-6.3-5.7c7-7.7,14.1-16.6,20.9-26.6
	c12.1-1.1,23.5-2.8,33.8-5.2C187.8,171.1,188.3,173.1,188.7,175.1L188.7,175.1L188.7,175.1z M85.1,222.7c-7.7,2.7-13.8,2.8-17.5,0.7
	c-7.9-4.5-11.1-22.1-6.7-45.6c0.5-2.7,1.1-5.5,1.8-8.3c10.2,2.3,21.5,3.9,33.6,4.9c6.9,9.7,14.1,18.6,21.4,26.5
	c-1.6,1.5-3.2,3-4.8,4.4C103.3,213.7,93.6,219.7,85.1,222.7L85.1,222.7L85.1,222.7z M49.1,154.7c-12.2-4.2-22.2-9.6-29.1-15.5
	c-6.2-5.3-9.3-10.6-9.3-14.8c0-9.1,13.5-20.7,36.1-28.5c2.7-1,5.6-1.9,8.6-2.7c3.1,10.2,7.2,20.8,12.2,31.5
	c-5,10.9-9.2,21.7-12.3,32C53.1,156,51,155.4,49.1,154.7L49.1,154.7L49.1,154.7z M61.1,72.6c-4.7-24-1.6-42,6.3-46.6
	c8.3-4.8,26.8,2.1,46.3,19.3c1.2,1.1,2.5,2.3,3.7,3.5c-7.2,7.8-14.4,16.6-21.3,26.3c-11.7,1.1-23,2.8-33.3,5.2
	C62.2,77.6,61.6,75.1,61.1,72.6L61.1,72.6L61.1,72.6z M168.7,99.1c-2.5-4.3-5-8.4-7.6-12.5c8,1,15.6,2.3,22.7,4
	c-2.2,6.9-4.8,14.1-8,21.5C173.7,107.8,171.3,103.5,168.7,99.1L168.7,99.1L168.7,99.1z M124.9,56.4c4.9,5.3,9.8,11.3,14.7,17.7
	c-4.9-0.2-9.8-0.4-14.8-0.4c-4.9,0-9.8,0.1-14.7,0.3C114.9,67.7,119.9,61.8,124.9,56.4L124.9,56.4L124.9,56.4z M80.7,99.2
	c-2.5,4.3-4.8,8.6-7,12.9c-3.1-7.4-5.8-14.6-7.9-21.6c7.1-1.6,14.7-2.9,22.6-3.9C85.7,90.7,83.2,94.9,80.7,99.2L80.7,99.2L80.7,99.2
	z M88.6,162.9c-8.2-0.9-15.9-2.1-23-3.7c2.2-7.1,4.9-14.5,8.1-22c2.2,4.3,4.6,8.6,7.1,12.9h0C83.3,154.5,85.9,158.7,88.6,162.9
	L88.6,162.9L88.6,162.9z M125.2,193.1c-5.1-5.5-10.1-11.5-15-18c4.8,0.2,9.6,0.3,14.6,0.3c5.1,0,10.1-0.1,15.1-0.3
	C134.9,181.7,130,187.8,125.2,193.1L125.2,193.1L125.2,193.1z M176,136.8c3.3,7.6,6.1,15,8.4,21.9c-7.2,1.7-15,3-23.3,4
	c2.6-4.1,5.1-8.3,7.7-12.7C171.3,145.6,173.7,141.2,176,136.8L176,136.8L176,136.8z M159.6,144.7c-3.9,6.8-7.9,13.2-12,19.3
	c-7.4,0.5-15.1,0.8-22.8,0.8c-7.8,0-15.3-0.2-22.6-0.7c-4.2-6.2-8.3-12.6-12.2-19.3h0c-3.9-6.7-7.4-13.4-10.6-20.1
	c3.2-6.7,6.8-13.4,10.6-20.1l0,0c3.9-6.7,7.9-13.1,12.1-19.3c7.4-0.6,15-0.9,22.7-0.9h0c7.7,0,15.3,0.3,22.8,0.9
	c4.1,6.1,8.2,12.5,12,19.2c3.9,6.8,7.5,13.5,10.8,20C167,131.2,163.5,137.9,159.6,144.7L159.6,144.7L159.6,144.7z M181.5,25.7
	c8.4,4.8,11.6,24.2,6.4,49.7c-0.3,1.6-0.7,3.3-1.1,5c-10.4-2.4-21.6-4.2-33.4-5.3c-6.9-9.8-14-18.6-21.1-26.3
	c1.9-1.8,3.8-3.6,5.7-5.3C156.5,27.5,173.7,21.2,181.5,25.7L181.5,25.7L181.5,25.7z"/>
<path d="M124.7,102.1c12.3,0,22.3,10,22.3,22.3c0,12.3-10,22.3-22.3,22.3s-22.3-10-22.3-22.3
	C102.5,112.1,112.4,102.1,124.7,102.1"/>
</svg>
